HIERARCHY
ROOT Hips
{
     OFFSET 10.62050 98.03320 -98.02240
     CHANNELS 6 Xposition Yposition Zposition Zrotation Xrotation Yrotation
     JOINT Spine
     {
          OFFSET 0.00000 11.89050 0.00000
          CHANNELS 3 Zrotation Xrotation Yrotation
          JOINT Spine1
          {
               OFFSET 0.00000 25.65740 0.12766
               CHANNELS 3 Zrotation Xrotation Yrotation
               JOINT HEad
               {
                    OFFSET 0.00000 8.73416 0.01134
                    CHANNELS 3 Zrotation Xrotation Yrotation
                    End Site
                    {
                         OFFSET -0.29000 12.77420 2.51395
                    }
               }
               JOINT LeftShoulder1
               {
                    OFFSET 8.99000 -0.36225 -0.22000
                    CHANNELS 3 Zrotation Xrotation Yrotation
                    JOINT LeftArm
                    {
                         OFFSET 10.28270 -0.00338 0.32212
                         CHANNELS 3 Zrotation Xrotation Yrotation
                         JOINT LeftForeArm
                         {
                              OFFSET 32.76690 0.09914 -1.42434
                              CHANNELS 3 Zrotation Xrotation Yrotation
                              JOINT LeftHand
                              {
                                   OFFSET 27.56430 0.08536 1.02216
                                   CHANNELS 3 Zrotation Xrotation Yrotation
                                   End Site
                                   {
                                        OFFSET 16.74430 -0.60000 1.50291
                                   }
                              }
                         }
                    }
               }
               JOINT RightShoulder
               {
                    OFFSET -8.99000 -0.36225 -0.22000
                    CHANNELS 3 Zrotation Xrotation Yrotation
                    JOINT RightArm
                    {
                         OFFSET -10.28270 -0.00338 0.32212
                         CHANNELS 3 Zrotation Xrotation Yrotation
                         JOINT RightForeArm
                         {
                              OFFSET -32.89710 0.09914 -1.42434
                              CHANNELS 3 Zrotation Xrotation Yrotation
                              JOINT RightHand
                              {
                                   OFFSET -27.49210 0.08536 1.02216
                                   CHANNELS 3 Zrotation Xrotation Yrotation
                                   End Site
                                   {
                                        OFFSET -16.63120 -0.60000 1.50291
                                   }
                              }
                         }
                    }
               }
          }
     }
     JOINT LeftUpLeg
     {
          OFFSET 8.94580 -8.66707 0.10165
          CHANNELS 3 Zrotation Xrotation Yrotation
          JOINT LeftLeg
          {
               OFFSET 0.00000 -44.42270 1.37270
               CHANNELS 3 Zrotation Xrotation Yrotation
               JOINT LeftFoot
               {
                    OFFSET -0.25355 -42.09240 -1.46059
                    CHANNELS 3 Zrotation Xrotation Yrotation
                    JOINT LeftToes
                    {
                         OFFSET -0.04000 -4.41509 8.49910
                         CHANNELS 3 Zrotation Xrotation Yrotation
                         End Site
                         {
                              OFFSET 0.08000 -0.04745 9.77979
                         }
                    }
               }
          }
     }
     JOINT RightUpLeg
     {
          OFFSET -8.94580 -8.66707 0.10165
          CHANNELS 3 Zrotation Xrotation Yrotation
          JOINT RightLeg
          {
               OFFSET 0.00000 -44.42270 1.37270
               CHANNELS 3 Zrotation Xrotation Yrotation
               JOINT RightFoot
               {
                    OFFSET 0.25355 -42.09240 -1.46059
                    CHANNELS 3 Zrotation Xrotation Yrotation
                    JOINT RightToes
                    {
                         OFFSET 0.04000 -4.41509 8.49910
                         CHANNELS 3 Zrotation Xrotation Yrotation
                         End Site
                         {
                              OFFSET -0.08000 -0.13745 9.77979
                         }
                    }
               }
          }
     }
}
MOTION
Frames: 10
Frame Time: 0.01667
20.32910 94.52160 -6.08894 0.46801 -8.51121 18.01330 0.23636 7.33602 2.03414 -1.27416 14.82730 4.87287 -1.10193 7.38988 -16.05670 0.00000 0.00000 0.00000 -54.87050 -26.46250 -54.71060 7.42656 32.38500 -104.47800 40.42820 13.63890 14.87000 1.17409 0.43512 3.70437 40.51400 -25.53730 54.13270 -7.66142 26.91660 111.50800 5.09069 10.25330 2.71949 11.85040 -16.01220 5.80092 -16.34250 38.21700 44.72940 8.40947 -4.72678 -0.20378 -40.51060 -35.85040 -23.22540 -11.51860 -14.40310 -1.95353 6.75805 72.53980 -9.72690 13.99440 -3.02876 -0.71154 6.06162 20.99390 -19.55920 
20.65800 94.32460 -4.89585 0.20603 -9.57754 18.34250 0.49988 7.61605 1.24147 -0.61999 15.35980 3.15580 -2.37968 8.03807 -12.23490 0.00000 0.00000 0.00000 -57.21290 -24.48480 -58.68230 8.29371 33.18450 -104.39700 40.25180 14.06190 16.12040 2.34194 0.47507 3.44986 43.12860 -26.28410 53.50370 -8.96496 26.71380 111.92900 4.52692 10.19320 2.14788 12.11070 -15.07770 4.88406 -16.30030 39.46740 45.21770 9.62598 -5.28036 -0.18513 -41.29990 -35.94990 -24.08410 -11.21910 -18.34060 -2.69585 3.17536 73.67570 -7.40999 11.17520 -6.22114 -0.30394 4.90246 18.39090 -18.31100 
20.94060 94.07520 -3.59202 0.02426 -10.55740 18.78760 0.64500 7.89287 0.43971 -0.01054 15.85640 1.33437 -3.77419 8.54712 -8.14291 0.00000 0.00000 0.00000 -59.24120 -22.38600 -62.21940 9.60063 33.86640 -104.69000 40.19170 14.49570 17.37130 3.71423 0.51456 3.13919 45.72560 -27.05480 52.49600 -9.78212 26.59550 112.27600 3.89511 10.14370 1.78859 12.32430 -14.18320 3.71474 -16.41050 40.73360 45.80310 10.54340 -5.84194 -0.14896 -42.11070 -36.33750 -24.66060 -10.89150 -21.78660 -3.37306 -0.71736 73.19510 -3.90519 9.02686 -8.38885 -0.11848 3.76170 15.63060 -16.97190 
21.16900 93.75790 -2.15624 -0.06198 -11.43560 19.33970 0.62398 8.14744 -0.34953 0.53424 16.29680 -0.53055 -5.23700 8.92804 -3.84728 0.00000 0.00000 0.00000 -60.87310 -20.16830 -65.31310 11.10870 34.43900 -105.19600 40.22210 14.86890 18.41830 5.38679 0.55263 2.75980 48.00700 -27.97910 51.04410 -10.03760 26.56950 112.53700 3.24818 10.10160 1.55393 12.50020 -13.33930 2.62871 -16.45080 42.13720 46.11490 11.16910 -6.46251 -0.09421 -42.97320 -36.91010 -25.10150 -10.53530 -24.68870 -3.86108 -3.85414 71.27120 -0.37234 7.73803 -9.82272 -0.03815 2.64359 12.68730 -15.78200 
21.34280 93.37590 -0.58065 -0.03776 -12.21120 20.02260 0.42447 8.35518 -1.12821 0.99321 16.65840 -2.40466 -6.67791 9.20857 0.60584 0.00000 0.00000 0.00000 -61.47220 -17.48450 -67.84690 12.52130 34.25880 -105.49500 40.21300 15.14880 19.21480 7.37186 0.58417 2.31531 49.75910 -29.14440 49.09180 -9.84897 26.56670 112.77800 2.66974 10.06680 1.36498 12.66160 -12.51020 1.76916 -16.32600 43.65790 46.02790 11.57660 -7.14335 -0.02484 -44.00720 -37.55310 -25.66680 -10.18070 -27.00430 -4.13890 -5.88618 68.11400 2.56498 7.37373 -10.88330 0.01721 1.59413 9.70210 -14.57950 
21.46360 92.94640 1.12860 0.10705 -12.89590 20.83860 0.06993 8.50078 -1.90506 1.34159 16.93500 -4.25761 -7.98047 9.36694 5.18922 0.00000 0.00000 0.00000 -61.27900 -14.61750 -69.89890 13.57740 33.72110 -105.47900 40.20750 15.30450 19.65790 9.57132 0.60147 1.82467 50.87910 -30.59760 46.62570 -9.39726 26.51130 113.05900 2.22125 10.04000 1.17557 12.83810 -11.63270 1.20299 -15.97440 45.20990 45.46720 11.80090 -7.84210 0.05128 -45.28750 -38.22440 -26.47970 -9.86886 -28.71450 -4.22110 -6.96478 63.90430 4.76069 7.79029 -11.85360 0.08993 0.76864 7.09993 -13.10010 
21.53040 92.48560 2.95991 0.36759 -13.50280 21.75990 -0.40574 8.58333 -2.67703 1.55496 17.14040 -6.04359 -9.05767 9.37950 9.84087 0.00000 0.00000 0.00000 -60.52220 -11.75110 -71.55470 14.08630 33.14270 -105.09400 40.28940 15.32450 19.68020 11.84680 0.59886 1.31226 51.28960 -32.36340 43.68980 -8.79530 26.38790 113.37700 1.88776 10.02000 0.98984 13.06020 -10.66210 0.95628 -15.33650 46.71860 44.36230 11.81880 -8.49970 0.12414 -46.78510 -38.91760 -27.50210 -9.61718 -29.82440 -4.10946 -7.36319 58.79550 6.38135 8.77452 -12.97750 0.20720 0.40007 5.67783 -11.56080 
21.53110 91.97190 4.91874 0.79985 -14.00230 22.80170 -1.10226 8.59518 -3.42510 1.58648 17.28820 -7.71062 -9.87470 9.28476 14.39120 0.00000 0.00000 0.00000 -59.26640 -8.88956 -72.93840 13.95610 32.55830 -104.27600 40.42850 15.20170 19.27690 14.07410 0.57202 0.78381 50.86790 -34.41200 40.36230 -8.07229 26.23010 113.65100 1.59165 10.00430 0.88044 13.28060 -9.63342 0.95129 -14.45490 48.19740 42.74570 11.55150 -9.16487 0.19432 -48.24960 -39.55200 -28.52360 -9.52504 -30.39680 -3.83988 -7.36130 53.01800 7.80871 10.15230 -14.43190 0.39529 0.55149 5.98916 -10.70900 
21.46230 91.36820 7.02743 1.46414 -14.35350 24.06030 -2.10097 8.51959 -4.15560 1.42697 17.37990 -9.24473 -10.44150 9.15100 18.61660 0.00000 0.00000 0.00000 -57.59490 -6.04457 -74.19270 13.29680 31.93320 -103.10300 40.47880 14.94420 18.53250 16.11750 0.51703 0.23411 49.50550 -36.58860 36.72690 -7.28101 26.05960 113.78800 1.24938 9.98982 0.92812 13.43360 -8.62696 0.98889 -13.46810 49.70350 40.75170 10.91790 -9.97138 0.26893 -49.37450 -40.00780 -29.32470 -9.73786 -30.50530 -3.51750 -7.16567 46.86060 9.36874 11.75640 -16.24390 0.67275 1.07084 7.75678 -11.25960 
21.35830 90.72160 9.25090 2.29272 -14.52640 25.63340 -3.20144 8.36630 -4.89884 1.10691 17.40130 -10.68960 -10.79430 9.00582 22.39380 0.00000 0.00000 0.00000 -55.61780 -3.27809 -75.39820 12.45510 31.23310 -101.81500 40.29630 14.59660 17.61960 17.80750 0.43485 -0.32758 47.20840 -38.62000 32.86050 -6.51967 25.87460 113.75300 0.84366 9.97460 1.15698 13.51630 -7.70851 0.82778 -12.44750 51.12060 38.50550 9.87470 -10.89070 0.33380 -50.06880 -40.20230 -29.89640 -10.30420 -30.11430 -3.24069 -6.84399 40.35310 11.06750 13.43290 -18.13460 1.02071 1.73461 10.00520 -13.14390 
